<svg xmlns="http://www.w3.org/2000/svg" width="512" height="512"><path d="M231.126 38.237c-34.791 34.793-36.611 36.443-43.302 39.266-3.841 1.621-7.203 3.301-7.47 3.733-.267.433 1.906-.186 4.83-1.374C226.472 63.075 277.28 61.502 320 75.688c69.566 23.1 120.461 83.617 131.585 156.461 2.267 14.849 2.27 42.351.005 56.851-2.999 19.2-10.593 43.291-18.62 59.072-18.914 37.183-50.605 68.347-88.374 86.903-60.126 29.541-131.025 25.79-188.708-9.984C119.034 402.135 89.951 365.592 75.513 324c-7.535-21.705-10.476-39.675-10.476-64 0-24.58 3.532-45.543 11.363-67.439 1.956-5.467 3.41-10.084 3.233-10.262-.178-.177-1.594 2.72-3.147 6.439-2.674 6.402-4.679 8.623-37.692 41.738L3.926 265.453l.307 97.523c.287 91.266.424 97.877 2.132 103.024 6.324 19.051 20.346 32.903 39.135 38.661 5.741 1.76 14.836 1.839 211 1.839s205.259-.079 211-1.839c19.316-5.919 33.994-20.798 39.236-39.774 1.659-6.006 1.764-18.546 1.764-210.387s-.105-204.381-1.764-210.387c-5.243-18.979-20.241-34.16-39.317-39.8-5.423-1.604-14.044-1.777-102.947-2.073l-97.028-.323-36.318 36.32m8.374 40.928c-40.891 4.62-81.712 24.639-110 53.945-7.866 8.15-7.823 8.122 2.577-1.661 5.818-5.472 14.143-12.36 18.5-15.307 7.598-5.139 6.919-4.35-16.513 19.194-13.44 13.503-24.762 24.351-25.159 24.105-.976-.603-7.686 10.161-13.158 21.112-20.958 41.934-24.439 91.69-9.639 137.782 4.276 13.318 16.187 36.804 24.637 48.577 26.92 37.51 66.512 63.12 113.255 73.257 9.355 2.029 13.226 2.277 35.5 2.277 28.287 0 35.492-1.056 57.75-8.466 65.793-21.902 113.447-79.232 123.265-148.293 2.927-20.585 1.466-48.921-3.543-68.727-9.124-36.076-29.687-69.955-56.748-93.499-38.776-33.736-90.39-49.982-140.724-44.296m-90.223 57.824c-1.582 1.848-1.684 8.688-1.443 96.25l.26 94.261 4.211 4c2.316 2.2 26.881 23.125 54.589 46.5 45.056 38.01 50.783 42.532 54.208 42.806 3.752.3 4.864-.605 55.613-45.271 28.482-25.068 52.341-46.58 53.02-47.806.956-1.724 1.235-23.29 1.235-95.229 0-51.15-.331-93.495-.735-94.1-1.597-2.391-5.039-3.447-7.533-2.31-2.079.947-7.154 13.725-36.743 92.518l-34.33 91.42-30.983-.264-30.983-.264-20.83-53.5c-11.457-29.425-27.243-70.145-35.082-90.489-7.838-20.344-15.038-37.781-16.001-38.75-2.327-2.342-6.365-2.233-8.473.228m-31.545 9.261c-6.242 7.798-9.015 11.8-8.521 12.294.269.269 2.884-2.781 5.812-6.777 2.927-3.997 5.75-7.829 6.272-8.517.523-.687.7-1.25.394-1.25-.305 0-2.086 1.912-3.957 4.25m42.288 101L160 320h28.5c15.675 0 28.5-.316 28.5-.702 0-.667-24.419-62.877-46.632-118.798l-10.327-26-.021 72.75m171.429-.65c-14.822 39.38-27.099 72.005-27.282 72.5-.193.52 11.329.9 27.25.9H359v-72.5c0-39.875-.135-72.5-.301-72.5-.165 0-12.428 32.22-27.25 71.6m-157.005 88.685C222.146 375.954 247 396.794 247 396.121c0-.457-2.632-7.534-5.848-15.726-3.217-8.192-8.879-22.657-12.582-32.145L221.836 331l-26.168.035-26.168.035 4.944 4.215M235 332.171c0 1.169 24.359 63.861 25.845 66.516.503.9 5.325-10.677 13.491-32.393 6.989-18.587 12.697-34.131 12.685-34.544-.038-1.331-52.021-.91-52.021.421m64.516-.197c-1.547 2.504-24.224 64.092-23.501 63.827 1.089-.398 72.985-63.805 72.985-64.366 0-.936-48.902-.403-49.484.539" fill="undefined" fill-rule="evenodd"/></svg>