<svg xmlns="http://www.w3.org/2000/svg" width="1280" height="1280"><path d="M591.5 46.543c-98.04 8.368-189.459 39.146-271.5 91.406C248.088 183.757 183.757 248.088 137.949 320c-53.818 84.487-84.707 178.475-92.022 280.002-1.234 17.126-.77 83.359.616 87.801.602 1.932 1.3 2.254 4.337 2 2.808-.235 3.688-.779 3.923-2.424.181-1.272 1.781-2.872 4-4 2.033-1.033 4.057-2.441 4.497-3.129.44-.687 1.944-1.25 3.343-1.25 1.703 0 2.717-.661 3.067-2 .288-1.1.821-2 1.184-2 1.7 0 4.106 4.368 4.106 7.454 0 3.31.15 3.445 4.25 3.814l4.25.383-4.75.174L74 687v-3.393c0-4.513-2.473-5.461-5.913-2.267-1.423 1.321-3.873 2.706-5.444 3.077-2.489.588-2.801 1.055-2.423 3.629.343 2.339.059 2.954-1.366 2.954-3.399 0-10.748 4.266-11.072 6.427-.414 2.764 3.483 33.049 6.186 48.073 10.609 58.956 30.361 116.709 57.801 169 13.169 25.096 18.258 33.5 20.285 33.5 1.005 0 2.106-.45 2.446-1 .34-.55 1.92-1 3.511-1h2.894l-2.274 2.453c-1.632 1.761-2.916 2.285-4.552 1.857-2.219-.58-2.239-.521-.768 2.297 2.933 5.618 21.018 32.057 30.707 44.893 18.795 24.9 42.354 51.82 45.787 52.32 1.242.18 2.212 1.049 2.233 2 .022.924 2.037 3.93 4.48 6.68 4.308 4.85 4.441 4.918 4.461 2.25.018-2.304.451-2.75 2.676-2.75 2.509 0 2.564.101 1 1.829-4.482 4.953 1.193 9.658 9.095 7.541 1.535-.412 2.25-1.36 2.25-2.987 0-2.035.475-2.374 3.25-2.32 3.019.059 3.085.13.93.994-3.515 1.41-2.616 5.341 1.32 5.77 4.775.52 5.453 2.173.891 2.173-4.875 0-8.737 2.396-6.391 3.966 2.491 1.666 7.846 1.188 9.921-.887 1.749-1.749 2.887-1.86 12.75-1.25 6.679.414 10.637 1.054 10.329 1.671-.275.55-1.625 1.037-3 1.082-1.375.046-3.062.158-3.75.25-1.885.253-1.5 2.963.5 3.524 3.19.894 14.223.071 15.447-1.153 1.9-1.9 2.567-1.42 2.018 1.453-.658 3.442 2.117 5.772 5.023 4.217 1.371-.734 1.823-1.776 1.5-3.462-.353-1.85-.027-2.411 1.401-2.411 1.286 0 1.861.725 1.861 2.345 0 3.549 3.049 5.795 6.837 5.038 2.003-.401 3.163-.233 3.163.457 0 2.168 4.651 3.518 12 3.481 4.125-.02 5.847.149 3.826.377-7.72.869-7.206 6.302.596 6.302 2.298 0 4.71.532 5.361 1.183.651.651 1.529.815 1.95.363.422-.451.205-1.021-.483-1.266-2.501-.893-1.296-3.28 1.656-3.28 2.462 0 2.823.322 2.357 2.102-.593 2.268 1.061 3.857 4.04 3.883.992.008 3.459 1.14 5.482 2.515 2.653 1.803 5.009 2.5 8.447 2.5 4.101 0 4.768.28 4.768 2 0 1.203.697 2.037 1.75 2.092l4.75.25c2.316.122 3.075.685 3.328 2.47.278 1.961.747 2.221 3.09 1.706 1.865-.41 3.18-.105 4.045.938.705.849 1.696 1.544 2.201 1.544.506 0 1.913.934 3.128 2.076 1.214 1.143 4.208 2.993 6.652 4.114 2.444 1.12 5.594 2.858 7 3.861 3.987 2.847 9.038 2.957 9.086.199.027-1.526.175-1.494 1.158.25.62 1.1 2.9 3.659 5.068 5.687 2.167 2.028 3.657 4.146 3.31 4.706-.791 1.28-3.333.34-5.826-2.153-1.265-1.265-2.692-1.718-4.213-1.336-1.735.435-2.426.088-2.819-1.414-.302-1.155-1.365-1.99-2.533-1.99-3.068 0-5.175-1.061-5.175-2.607 0-.952-1.231-1.393-3.883-1.393-3.043 0-3.997-.433-4.407-2-.392-1.498-1.364-2-3.876-2-2.27 0-3.756-.646-4.602-2-.888-1.423-2.332-2-5-2s-4.112-.577-5-2c-.848-1.358-2.332-2-4.624-2-2.607 0-3.502-.487-3.934-2.14-.48-1.834-1.07-2.057-4.131-1.561-2.886.469-4.076.112-6.203-1.86-1.462-1.355-3.853-2.439-5.379-2.439-1.519 0-3.004-.67-3.323-1.5-.348-.907-1.872-1.505-3.857-1.514-4.658-.019-7.781-1.013-7.781-2.475 0-.781-1.942-1.443-5.135-1.75-3.321-.319-5.459-1.071-6.05-2.127-.633-1.131-2.287-1.634-5.374-1.634-3.223 0-4.936-.555-6.173-2-1.277-1.492-2.95-2-6.583-2-3.355 0-5.66-.622-7.412-2-1.938-1.524-4.057-2-8.908-2-3.501 0-6.365-.378-6.365-.839 0-1.841-5.507-3.161-13.187-3.161-6.253 0-8.358-.362-9.259-1.595-.641-.877-2.122-1.44-3.289-1.25-1.72.279.083 2.248 9.475 10.345 90.121 77.699 197.394 125.902 313.76 140.989 46.906 6.081 106.094 6.081 153 0 86.611-11.229 169.624-41.379 243.5-88.438 71.85-45.769 136.282-110.201 182.051-182.051 47.059-73.876 77.209-156.889 88.438-243.5 6.081-46.906 6.081-106.094 0-153-13.638-105.189-54.714-203.859-119.891-287.991C1014.2 151.074 872.322 69.714 716.5 49.511c-35.031-4.541-90.997-5.871-125-2.968M93.442 435.906c.308.498 1.46.671 2.559.383 2.752-.719 2.504-1.289-.56-1.289-1.407 0-2.307.408-1.999.906m18.371 7.777c.721.289 1.584.253 1.916-.079.332-.332-.258-.568-1.312-.525-1.165.048-1.402.285-.604.604m5.551 3.044c1.755.262 3.058 1.172 3.366 2.35.277 1.058.887 1.923 1.355 1.923 1.08 0-.083-3.256-1.512-4.235-.59-.404-2.198-.674-3.573-.6-2.272.122-2.239.174.364.562m9.905 3.966c.973.254 2.323.237 3-.037.677-.274-.119-.481-1.769-.461-1.65.02-2.204.244-1.231.498m8.241 4.323c.346.559 1.047.758 1.559.441 1.387-.857 1.129-1.457-.628-1.457-.857 0-1.276.457-.931 1.016m5.573 3.267c.23.156 1.204.886 2.167 1.622 1.498 1.147 1.75 1.106 1.75-.283 0-.997-.835-1.622-2.167-1.622-1.191 0-1.979.127-1.75.283m6.73 4.4c.721.289 1.584.253 1.916-.079.332-.332-.258-.568-1.312-.525-1.165.048-1.402.285-.604.604M169 474.347c2.745 1.446 3.553 1.357 2.541-.28-.362-.587-1.645-1.06-2.85-1.052-2.101.014-2.089.068.309 1.332m5.704 3.757c.791.791 1.626.799 2.95.03 1.618-.941 1.482-1.077-1.104-1.104-2.151-.022-2.651.269-1.846 1.074M182 482c0 .55.675 1 1.5 1s1.5-.45 1.5-1-.675-1-1.5-1-1.5.45-1.5 1m9 7.063c0 .515 1.875.937 4.167.937 4.935 0 4.776-.494-.417-1.296-2.077-.32-3.75-.16-3.75.359m239.596.687c-63.659.187-89.286.578-90.25 1.378-.74.614-1.346 2.188-1.346 3.498s-.9 4.06-2 6.113c-1.1 2.052-2 4.766-2 6.031 0 1.265-.624 3.297-1.388 4.515-.763 1.218-1.675 3.857-2.026 5.865-.352 2.007-1.253 4.159-2.004 4.782-.75.623-1.681 3.239-2.067 5.815-.386 2.575-1.335 5.585-2.108 6.69-.774 1.104-1.41 3.145-1.414 4.536-.003 1.39-.9 3.877-1.993 5.527-1.093 1.65-1.99 3.907-1.993 5.015-.004 1.108-.907 3.694-2.007 5.746-1.1 2.053-2 4.564-2 5.58 0 4.388-7.662 7.167-8.71 3.159-.288-1.1-1.16-2-1.938-2s-1.662-.644-1.964-1.43c-.301-.787-1.75-1.905-3.218-2.486-1.469-.58-3.41-1.592-4.314-2.247-1.31-.951-1.969-.867-3.25.414-2.682 2.682-1.856 3.749 2.904 3.749 3.919 0 5.092.548 8.954 4.182 2.444 2.3 4.967 5.445 5.607 6.989 1.06 2.559.888 3.065-1.939 5.706-4.303 4.019-5.449 4.37-15.395 4.708-6.232.212-9.207.742-10.299 1.834-1.693 1.693-15.014 2.052-17.031.46-.696-.55-1.486-.001-2.176 1.513-.886 1.945-2.3 2.589-7.779 3.543-3.683.641-7.348 1.818-8.145 2.616-.874.873-3.407 1.449-6.378 1.449-2.711 0-4.929.205-4.929.455s1.122 1.577 2.494 2.948c2.18 2.18 3.026 2.404 6.71 1.775 3.382-.577 4.33-1.21 4.795-3.199.444-1.897 1.323-2.552 3.744-2.789 1.741-.17 4.058.168 5.15.753 1.316.704 2.195.724 2.605.06.996-1.611 5.502-1.204 5.502.497 0 1.858 1.624 1.96 2.7.169 1.201-1.999 6.65-4.392 13.003-5.711 5.107-1.06 5.794-.999 6.981.624.724.99 1.316 2.872 1.316 4.182 0 1.733.477 2.289 1.75 2.041 1.244-.243 1.66-1.109 1.439-2.996-.298-2.536-.128-2.64 3.837-2.344 2.281.17 4.604.765 5.162 1.323 1.492 1.492-.039 7.062-2.269 8.256-1.484.793-1.919 2.118-1.919 5.836 0 3.54-.528 5.288-2 6.62-1.1.995-2.007 2.978-2.015 4.405-.019 3.212-1.416 5.565-2.798 4.711-1.619-1.001-1.946 2.644-.449 5.022 1.189 1.889.991 2.835-1.696 8.124-1.673 3.292-3.045 6.605-3.049 7.362-.003.757-.9 2.726-1.993 4.376-1.093 1.65-1.99 4.407-1.993 6.128-.004 1.72-.682 3.687-1.507 4.372-.825.685-1.5 1.849-1.5 2.588 0 2.958-7.115 14.022-10.476 16.291-1.938 1.308-3.524 2.927-3.524 3.598 0 .671-1.787 2.025-3.971 3.01-2.742 1.236-4.632 3.058-6.103 5.88-1.172 2.249-2.985 4.687-4.029 5.417-2.507 1.757-2.408 3.216.218 3.216 1.163 0 3.526-1.483 5.25-3.296 1.724-1.812 4.373-3.827 5.885-4.478 2.255-.97 2.75-1.816 2.75-4.705 0-3.254.23-3.521 3.031-3.521 4.08 0 4.803 2.381 1.912 6.291-1.28 1.731-2.651 4.961-3.048 7.178-.397 2.217-1.429 6.056-2.294 8.531-.865 2.475-1.826 5.793-2.137 7.373-.533 2.717-.641 2.771-1.982 1-1.611-2.127-1.709-1.791-1.506 5.142.12 4.091-.39 5.756-2.767 9.037-1.602 2.213-3.498 5.806-4.213 7.985-.715 2.18-1.873 4.863-2.574 5.963-.701 1.1-1.59 3.8-1.977 6s-2.177 7.825-3.978 12.5c-1.801 4.675-3.573 9.625-3.938 11-.364 1.375-2.146 6.55-3.959 11.5-4.299 11.732-5.273 14.549-8.062 23.309l-2.327 7.309 2.565.976c2.793 1.061 2.838 1.062 24.754.578 8.25-.183 15.816.072 16.814.567 1.164.578 2.307.491 3.189-.242.757-.628 2.64-1.041 4.186-.918 7.761.615 9.801.023 11.631-3.374.976-1.813 1.953-5.075 2.17-7.25.218-2.175 1.552-6.127 2.965-8.781 1.413-2.654 2.31-5.246 1.992-5.759-.487-.788 2.26-8.937 5.534-16.415.481-1.1 1.144-3.642 1.473-5.649.329-2.006 1.487-4.777 2.572-6.157 1.086-1.38 1.974-3.465 1.974-4.634 0-3.161 2.57-8.72 4.542-9.823 1.337-.749 1.762-2.453 1.875-7.533.107-4.769.64-7.109 1.95-8.557.991-1.095 2.048-3.82 2.347-6.055.3-2.234 1.162-4.574 1.916-5.2.753-.625 1.37-2.004 1.37-3.064s.657-3.198 1.46-4.751c.803-1.553 1.22-3.064.926-3.357-.293-.294.175-1.904 1.04-3.577.866-1.674 1.574-3.94 1.574-5.036 0-1.096.998-3.684 2.218-5.752 1.22-2.068 2.094-4.942 1.943-6.387-.157-1.493.425-3.21 1.347-3.975 2.398-1.99 4.721-6.953 4.061-8.674-.317-.826.052-2.923.82-4.66 1.62-3.667 4.356-11.735 5.558-16.391.459-1.778 1.784-4.841 2.944-6.807 1.16-1.967 2.109-4.364 2.109-5.327 0-.963.661-2.625 1.468-3.693.808-1.067 1.483-2.853 1.5-3.968.018-1.116.64-2.916 1.383-4 .743-1.085 1.661-3.25 2.041-4.811.59-2.427.915-2.652 2.24-1.552 1.377 1.142 1.471.76.845-3.412-.69-4.602-.284-5.304 2.782-4.813.417.066 2.639-.301 4.936-.818 5.143-1.155 7.805.048 7.805 3.527 0 1.528.42 2.265 1.063 1.867.585-.361 3.691.175 6.904 1.191l5.841 1.848.741 5c.408 2.75.809 45.5.893 95 .11 65.659.462 90.541 1.299 92 .912 1.588 1.52 1.783 2.954.946 1.017-.593 6.509-.979 12.578-.884 8.787.138 11.137.499 12.75 1.958 1.264 1.145 1.977 1.346 1.977.558 0-.781 1.193-1.128 3.264-.95 1.796.155 3.933-.144 4.75-.664 2.445-1.556 47.779-1.376 52.377.207 2.273.783 4.352.978 5 .471 1.519-1.191 11.85-2.258 13.209-1.365.605.398 1.357 1.398 1.671 2.223.463 1.217.586 1.179.65-.205.053-1.136 1.263-1.927 3.634-2.371 3.612-.678 12.973.166 14.873 1.341.574.354 2.512.518 4.308.363 2.163-.186 3.285.166 3.327 1.045.035.73.471.314.968-.923.987-2.454 2.992-2.843 6.097-1.182 2.708 1.45 18.577-.491 20.852-2.55.923-.835 3.242-1.518 5.154-1.518 2.14 0 4.783-.963 6.871-2.504 1.917-1.414 4.139-2.268 5.106-1.961.941.299 3.214-.372 5.05-1.492 1.837-1.12 4.554-2.037 6.039-2.039 1.485-.002 3.06-.568 3.5-1.257.44-.689 2.739-2.569 5.11-4.177 2.37-1.609 4.732-3.715 5.249-4.68.516-.965 1.919-2.066 3.117-2.446 1.197-.38 3.742-2.21 5.654-4.067 1.912-1.858 4.052-3.377 4.756-3.377.704 0 1.565-.9 1.914-2s1.167-2.002 1.817-2.005c1.723-.006 7.438-5.62 9.21-9.047.838-1.621 1.85-2.951 2.249-2.955.398-.004 1.832-1.691 3.187-3.75 1.355-2.059 4.167-5.645 6.25-7.971 2.083-2.325 3.787-4.88 3.787-5.677 0-.797 1.125-2.335 2.5-3.416 1.375-1.082 2.5-2.962 2.5-4.179 0-1.216 1.125-3.548 2.5-5.183 1.375-1.634 2.785-4.174 3.132-5.644.347-1.47 1.389-3.573 2.316-4.673.927-1.1 2.257-4.925 2.957-8.5.7-3.575 1.622-6.95 2.049-7.5.428-.55 1.083-2.35 1.457-4 .373-1.65 1.059-4.575 1.524-6.5 2.934-12.145 4.233-19.46 4.708-26.5.297-4.4.897-10.469 1.334-13.486.484-3.345.397-6.467-.223-8-.559-1.383-1.184-9.039-1.389-17.014-.205-7.975-.792-15.625-1.305-17-.513-1.375-1.414-4.897-2.002-7.827-.589-2.931-1.742-6-2.564-6.822-1.736-1.736-1.969-4.939-.429-5.891.701-.434.501-1.282-.585-2.482-.907-1.002-1.898-3.673-2.201-5.935-.361-2.695-1.374-4.759-2.938-5.989-1.312-1.032-3.934-4.901-5.827-8.596-1.892-3.696-4.052-7.448-4.799-8.339-.748-.89-3.435-4.994-5.972-9.119-2.537-4.125-5.429-8.223-6.428-9.106-.998-.883-2.715-2.9-3.815-4.483-2.328-3.349-4.171-5.198-11.575-11.61a2972.466 2972.466 0 01-11.186-9.75c-3.168-2.778-6.324-5.051-7.013-5.051-.689 0-3.591-1.575-6.45-3.5-2.858-1.925-5.483-3.5-5.832-3.5-.349 0-1.83-.838-3.29-1.861-1.46-1.024-4.296-2.161-6.304-2.527-2.007-.366-4.199-1.328-4.872-2.138-.673-.811-2.405-1.476-3.85-1.478-1.446-.002-4.101-.902-5.902-2-1.801-1.098-4.566-1.996-6.145-1.996-1.579 0-5.73-.871-9.226-1.937-6.217-1.894-20.841-4.304-23.177-3.818-.648.134-41.185.361-90.082.505m257.627.699c-.323.521-.617 18.333-.655 39.582l-.068 38.633-2.5 4.96-2.5 4.959-5.75-.412c-6.046-.433-7.028.362-3.921 3.174 2.298 2.08 3.053 2.072 5.403-.055 1.61-1.457 2.021-1.498 2.776-.276.488.788 1.923 1.445 3.189 1.46 2.184.025 2.319.44 2.611 8.026.169 4.4.313 9.575.319 11.5.088 28.319-.015 118.77-.151 132-.205 20.022-.245 38.891-.094 44 .057 1.925.101 4.175.098 5-.004.825.217 5.706.49 10.846.282 5.293.069 10.147-.491 11.193-1.746 3.262 1.161 7.742 4.521 6.967 2.935-.676 17.183-.671 19.548.008 1.623.465 3.163.375 3.759-.221.591-.591 3.015-.741 5.851-.362 2.663.356 6.417.606 8.342.555 17.296-.459 26.875-.364 28.872.285 1.304.425 2.879.353 3.5-.159 1.593-1.314 26.554-1.418 28.122-.117.785.651 2.161.721 3.634.185 3.39-1.235 20.81-1.284 23.086-.065 1.33.711 2.318.689 3.237-.074.888-.737 5.719-.927 14.686-.578 7.35.287 14.263.459 15.363.382 1.598-.112 20.807-.09 27.5.032 2.221.04 37.659-.546 43.736-.724l5.235-.153 2.909-5.75c1.6-3.163 4.081-7.011 5.514-8.552 1.433-1.54 2.606-3.158 2.606-3.595 0-.436.86-1.571 1.91-2.522 1.051-.95 2.18-2.708 2.509-3.905.49-1.78 7.801-8.213 10.808-9.509.425-.184.835.941.91 2.5.075 1.558.45.133.833-3.167.714-6.155 4.854-13.749 9.649-17.695 1.165-.959 2.371-3.006 2.68-4.549.308-1.542 1.83-4.443 3.381-6.446 1.551-2.003 4.62-6.208 6.82-9.344 2.2-3.136 5.736-7.668 7.857-10.071C988.061 724.2 995 713.534 995 712.036c0-1.129 10.667-12.036 11.772-12.036 1.039 0 16.704-20.941 21.59-28.861 1.573-2.552 4.662-6.597 6.862-8.989 3.866-4.203 3.988-4.546 3.585-10.111-.366-5.062-.959-6.414-4.889-11.15-2.46-2.964-6.711-8.76-9.446-12.881-10.39-15.651-15.497-21.937-19.933-24.537-4.17-2.444-9.534-9.238-12.215-15.471-.591-1.375-3.568-5.286-6.615-8.691-3.046-3.406-5.833-7.118-6.192-8.25-.36-1.133-.994-2.059-1.409-2.059-.416 0-1.719-1.93-2.898-4.289-1.178-2.359-3.282-5.281-4.677-6.493-1.394-1.213-2.535-2.71-2.535-3.327 0-.618-1.575-3.269-3.5-5.891s-3.5-5.228-3.5-5.789c0-.562-2.666-3.772-5.924-7.133-3.258-3.361-6.205-7.39-6.549-8.954-.343-1.564-1.942-4.105-3.552-5.648-1.611-1.543-3.389-4.194-3.951-5.891-.563-1.697-2.261-3.922-3.773-4.946-1.513-1.023-4.088-3.948-5.722-6.5-3.785-5.91-4.367-6.677-8.179-10.762L920.2 490l-71.85-.153-115.695-.25c-26.682-.059-44.075.274-44.432.852M202 494.059c0 .582.45.781 1 .441s1-.816 1-1.059-.45-.441-1-.441-1 .477-1 1.059m10.813 7.624c.721.289 1.584.253 1.916-.079.332-.332-.258-.568-1.312-.525-1.165.048-1.402.285-.604.604M224.5 509c.34.55 1.293 1 2.118 1s1.222-.45.882-1c-.34-.55-1.293-1-2.118-1s-1.222.45-.882 1m4.5 3.022c0 .41.9.98 2 1.268 1.1.287 2 1.24 2 2.116 0 1.162.88 1.553 3.25 1.444 3.025-.139 3.06-.179.5-.566-1.838-.279-2.75-1.019-2.75-2.234 0-1.144-.926-1.994-2.5-2.295-1.375-.263-2.5-.143-2.5.267m12 8.072c0 .498.9.906 2 .906s2-.173 2-.383c0-.211-.9-.619-2-.907-1.1-.287-2-.115-2 .384m7 5.906c.944 1.763 5 2.922 5 1.429 0-1.186-2.92-3.429-4.464-3.429-1.296 0-1.4.386-.536 2m11.346 7.134c1.324.769 2.159.761 2.95-.03.805-.805.305-1.096-1.846-1.074-2.586.027-2.722.163-1.104 1.104m6.467 2.549c.721.289 1.584.253 1.916-.079.332-.332-.258-.568-1.312-.525-1.165.048-1.402.285-.604.604m5.491 5.263c-.28 1.071-1.251 2.125-2.157 2.342-.906.217.543.429 3.22.47 5.224.081 6.24.637 6.795 3.717.196 1.086 1.469 2.53 2.83 3.208 1.361.679 3.039 2.006 3.729 2.951 1.097 1.499 1.574 1.546 3.767.372 2.705-1.447 3.327-3.006 1.201-3.006-.722 0-2.201-.788-3.288-1.75-3.805-3.37-8.333-6.25-9.825-6.25-.828 0-1.987-.9-2.576-2-1.36-2.541-3.04-2.565-3.696-.054m111.103-.519c-1.121.785-2.739 3.148-3.596 5.25-2.752 6.752-5.579 14.666-7.411 20.75-1.609 5.341-1.631 6.025-.225 6.912 1.351.852 1.22 1.278-.975 3.165-1.645 1.415-2.312 2.763-1.899 3.838 1.371 3.572 7.003.826 7.857-3.831.201-1.093 1.035-2.076 1.853-2.183 7.303-.956 8.55-1.472 9.739-4.034 1.293-2.786 1.81-26.67.643-29.712-.755-1.967-3.305-2.032-5.986-.155m63.22 4.432c-1.916 2.118-2.085 4.283-.46 5.908.89.89.772 1.319-.495 1.805-1.432.55-1.588 1.829-1.125 9.232.296 4.727.999 9.149 1.562 9.827.563.679.994 2.839.957 4.801a972.124 972.124 0 00-.101 7.318c-.021 2.246-.682 4.239-1.648 4.969-1.252.945-1.354 1.532-.453 2.617.769.926.998 4.189.678 9.652-.275 4.696-.044 9.074.535 10.156.769 1.437.613 2.309-.64 3.562-1.269 1.269-1.515 2.705-1.048 6.116.336 2.451.611 6.402.611 8.778 0 2.385.618 4.899 1.38 5.61 1.017.951 1.126 1.948.413 3.79-1.374 3.553-1.376 25.592-.003 27.247.845 1.019.621 1.64-.944 2.617-1.65 1.03-1.922 1.904-1.39 4.459.993 4.769 1.928 17.577 1.655 22.677-.133 2.475-.217 11.002-.188 18.949.034 9.398-.329 14.684-1.037 15.122-.624.385-1.01 3.188-.904 6.551.102 3.233.12 8.905.04 12.604-.114 5.267.247 7.135 1.666 8.616 2.067 2.158 8.499 3.253 18.812 3.204 3.85-.018 14.2-.004 23 .032 8.8.036 16.9.048 18 .028 1.1-.021 4.413-.04 7.362-.043 2.95-.002 5.875-.395 6.5-.873.626-.477 4.513-1.418 8.638-2.09 4.125-.671 9.164-2.094 11.198-3.161 2.034-1.066 5.264-1.939 7.178-1.939 3.203 0 15.566-6.186 16.457-8.234.184-.421 1.21-.766 2.282-.766 1.071 0 2.208-.677 2.525-1.505.318-.827 2.085-2.22 3.927-3.094C574.386 737.589 587 726.36 587 724.773c0-.578 2.382-4.025 5.293-7.662 2.912-3.636 6.239-9.086 7.394-12.111 2.725-7.137 3.112-8.017 4.837-11 .796-1.375 1.453-3.815 1.461-5.421.008-1.607.785-3.773 1.726-4.813 1.209-1.335 1.762-3.856 1.884-8.578.095-3.679.904-11.097 1.798-16.486 1.661-10.011 1.418-11.954-1.838-14.657-1.758-1.458-2.111-7.583-.495-8.582 1.156-.714.423-10.516-1.044-13.963-1.86-4.369-2.906-8.622-2.428-9.868.277-.721-.227-1.917-1.119-2.657-1.364-1.133-1.765-1.119-2.53.089-.658 1.04-.913.571-.924-1.699-.031-6.383-3.049-13.117-7.154-15.961-2.124-1.472-3.861-3.235-3.861-3.918 0-.682-.675-1.801-1.5-2.486-1.036-.86-1.5-.898-1.5-.122 0 .617-.675 1.122-1.5 1.122-1.95 0-1.914-1.885.078-4.087 1.44-1.591 1.43-1.971-.115-4.328-.931-1.422-2.204-2.588-2.828-2.591-.624-.004-1.853-1.268-2.73-2.811-1.538-2.705-13.038-12.183-14.781-12.183-.47 0-3.462-1.77-6.65-3.934-3.293-2.235-9.505-5.088-14.385-6.607-4.724-1.47-10.614-3.388-13.089-4.261-3.762-1.326-10.997-1.632-44.123-1.862-37.071-.257-39.727-.159-41.25 1.523M746.051 544c-1.854 1.216-2.958 24.137-3.38 70.168-.058 6.3 1.345 8.832 4.892 8.832 1.276 0 2.597.45 2.937 1 .778 1.259 11.182 1.324 11.954.074.351-.568 1.827-.563 3.809.013 1.781.517 4.587.623 6.237.236 1.65-.387 3.45-.537 4-.332.983.365 23.088 1.068 27 .859 1.1-.059 3.575-.071 5.5-.026 10.342.242 13.315.078 15.011-.83 1.294-.693 3.708-.57 7.865.4 3.299.77 6.289 1.108 6.644.753.356-.356 10.847-.658 23.314-.672 25.262-.029 25.316-.014 24.432 6.579-.271 2.016.017 6.036.638 8.933.824 3.842.831 5.627.027 6.597-.607.73-.799 1.821-.427 2.423.681 1.102.67 10.648-.022 18.993-.205 2.475-.397 5.288-.427 6.25-.083 2.648-3.905 6.032-5.882 5.208-.92-.383-30.668-.755-66.106-.827-60.94-.124-64.559-.032-66.75 1.692-1.274 1.002-2.317 2.464-2.317 3.25 0 .785-.391 1.427-.868 1.427-.777 0-1.199 4.353-1.454 15-.047 1.925.059 7.325.233 12 .175 4.675.249 16.347.165 25.939l-.153 17.439 2.557 2.557 2.557 2.556 38.231.368c21.028.202 39.807.328 41.732.28 1.925-.047 10.7-.074 19.5-.059s16.563-.008 17.25-.05c1.259-.078 3.356-.056 7.5.079 1.237.04 6.122-.098 10.853-.307 9.97-.44 13.14-1.979 14.87-7.219.633-1.918 1.91-3.76 2.839-4.093 2.082-.747 7.65-8.267 9.63-13.006.807-1.932 2.18-3.785 3.05-4.119.87-.334 2.172-2.015 2.893-3.736 1.731-4.135 8.074-12.831 13.375-18.34 2.343-2.435 4.991-5.841 5.886-7.57.894-1.729 2.914-4.433 4.49-6.008 1.575-1.576 2.864-3.537 2.864-4.358 0-.821 1.35-3.455 3-5.853 1.65-2.398 3.017-4.729 3.039-5.18.021-.451 1.43-1.72 3.131-2.82 1.701-1.1 4.338-4.246 5.86-6.992 1.521-2.745 4.016-6.423 5.542-8.173 7.289-8.357 7.129-12.637-.799-21.384-.95-1.048-1.478-2.556-1.173-3.352.32-.833-.295-1.9-1.45-2.519-1.495-.8-2.114-.756-2.434.174-.236.685-.317.484-.181-.447s-.603-2.464-1.643-3.405c-1.041-.942-1.892-2.128-1.892-2.638 0-.509-1.575-3.298-3.5-6.198-1.925-2.9-3.5-5.63-3.5-6.067 0-.436-1.575-2.715-3.5-5.064-1.925-2.35-3.5-4.674-3.5-5.165 0-.491-.788-1.765-1.75-2.831-.962-1.067-2.987-3.739-4.499-5.939-1.513-2.2-4.758-6.228-7.212-8.95-2.454-2.723-5.015-6.323-5.689-8-1.311-3.259-4.413-7.813-9.316-13.68-1.669-1.996-4.159-5.551-5.534-7.901-2.916-4.983-13.086-15.873-15.11-16.18-3.042-.461-144.127-.256-144.839.211m-467.53 9.976c-1.783 1.971-1.776 2.024.265 2.024 2.442 0 3.856-1.758 2.503-3.111-.582-.582-1.629-.17-2.768 1.087M450 576.5c0 2.296.367 2.5 4.5 2.5 5.11 0 5.416-.416 2.25-3.056-3.384-2.823-6.75-2.546-6.75.556m17-.965c0 .845-.727 2.645-1.615 4-1.487 2.269-1.487 2.465 0 2.465.888 0 1.615-.723 1.615-1.607 0-1.344 1.102-1.561 6.75-1.328 9.716.401 14.25.073 14.25-1.03 0-2.153-3.531-2.838-7.506-1.457-3.661 1.272-4.22 1.223-6.704-.595-3.24-2.372-6.79-2.606-6.79-.448m28.5-.535c.34.55.816 1 1.059 1s.441-.45.441-1-.477-1-1.059-1-.781.45-.441 1m-228 3c-.34.55-.141 1 .441 1s1.059-.45 1.059-1-.198-1-.441-1-.719.45-1.059 1m236.25-.307c-2.613.229-4.75.757-4.75 1.174 0 .416 1.32 1.733 2.933 2.925l2.933 2.169.317-2.231c.262-1.841 1.047-2.283 4.503-2.534 3.305-.241 4.403.101 5.218 1.625 1.741 3.253 4.608 3.274 6.514.049l1.695-2.87-3.806-.011c-2.094-.006-5.382-.169-7.307-.362-1.925-.193-5.637-.163-8.25.066m-119.75 2.2c0 1.041-.675 2.152-1.5 2.469-.907.348-1.506 1.873-1.515 3.857-.024 4.981-.841 5.534-7.985 5.402-6.299-.117-6.5-.044-6.5 2.379 0 2.273.431 2.528 4.75 2.805 3.784.243 4.75.669 4.75 2.095 0 .984.855 2.564 1.901 3.51 1.046.947 2.195 3.287 2.554 5.201.457 2.436 1.386 3.758 3.099 4.409 1.345.512 2.475 1.504 2.509 2.205.035.701.48.237.989-1.031.707-1.762.741-25.413.049-33.944-.164-2.033-3.101-1.424-3.101.643m144.778-1.159c2.735.245 4.686 1.036 5.407 2.19.641 1.027 1.885 1.609 2.882 1.348 1.628-.426 1.637-.595.121-2.365-1.283-1.498-2.817-1.87-7.16-1.732-5.049.159-5.158.208-1.25.559m18.472 2.062c-3.72.379-4.03 1.188-1.374 3.592 1.661 1.503 1.945 1.521 2.469.155.825-2.149 5.495-1.93 7.495.351 2.268 2.589 7.16 3.684 7.16 1.604 0-.848 1.174-2.076 2.61-2.73 2.198-1.002 2.806-.919 3.86.522 1.366 1.868 3.53 2.304 3.53.71 0-.55.91-.09 2.023 1.023 1.633 1.633 2.416 1.813 4.06.932 1.121-.599 1.892-1.847 1.715-2.772-.281-1.465-2.128-1.719-14.243-1.962-7.657-.154-14.401-.612-14.988-1.017-.587-.406-2.529-.589-4.317-.408m355.829 1.787c.048 1.165.285 1.402.604.605.289-.722.253-1.585-.079-1.917-.332-.332-.568.258-.525 1.312m-241.045.339c1.944.381 4.034 1.002 4.645 1.38.611.377 1.369.014 1.685-.808.467-1.216-.398-1.473-4.645-1.379-4.802.106-4.936.17-1.685.807m-131.833 2.333c-.932 1.125-.983 1.761-.183 2.256 1.48.915 2.237.047 1.82-2.088-.304-1.563-.467-1.579-1.637-.168M460.5 586c.34.55.816 1 1.059 1s.441-.45.441-1-.477-1-1.059-1-.781.45-.441 1m12.579.583c.048 1.165.285 1.402.604.605.289-.722.253-1.585-.079-1.917-.332-.332-.568.258-.525 1.312M267 589.417c0 .871.712 1.583 1.583 1.583s1.406-.534 1.188-1.187c-.618-1.855-2.771-2.162-2.771-.396M666 592c-.854 1.596-.76 2 .465 2 .868 0 1.535-.869 1.535-2 0-1.1-.209-2-.465-2-.255 0-.946.9-1.535 2m-383.258.231c-.307.798-.205 2.02.226 2.716 1.169 1.893 2.354-.55 1.235-2.549-.763-1.362-.993-1.389-1.461-.167M481 594.406c0 .914.7 1.224 2 .884 1.1-.288 2-.921 2-1.407 0-.485-.9-.883-2-.883s-2 .633-2 1.406m108.158.594c0 1.375.227 1.938.504 1.25.278-.687.278-1.812 0-2.5-.277-.687-.504-.125-.504 1.25m-333.689 2.5l-.925 2.968c-.657 2.112 1.077 2.826 5.054 2.08l3.469-.651-2.284-2.893c-2.53-3.206-4.6-3.792-5.314-1.504m30.096-.605c-.305.493.104 1.148.909 1.457 1.562.599 2.897-.648 1.832-1.713-.904-.904-2.093-.793-2.741.256M222 597.927c0 1.251 2.462 1.643 7.666 1.222 6.484-.524 5.225-2.149-1.666-2.149-3.3 0-6 .417-6 .927m-5.731 3.766c.973.254 2.323.237 3-.037.677-.274-.119-.481-1.769-.461-1.65.02-2.204.244-1.231.498M251.29 606c-.288 1.1-.921 2-1.407 2-.485 0-.883.633-.883 1.406 0 2.212 3.73.727 4.394-1.748.825-3.077.748-3.658-.488-3.658-.601 0-1.329.9-1.616 2m16.42 1c.288 1.1.851 2 1.252 2 .4 0 1.543-.9 2.538-2 1.773-1.959 1.747-2-1.251-2-2.569 0-2.978.322-2.539 2m7.103 1.683c.721.289 1.584.253 1.916-.079.332-.332-.258-.568-1.312-.525-1.165.048-1.402.285-.604.604m-26.697 9.067c-.064.688-.764 1.25-1.557 1.25-1.879 0-3.039 1.92-1.868 3.091 1.446 1.446 4.604-1.417 4.034-3.657-.271-1.064-.545-1.371-.609-.684M287 625.059c0 .582.45.781 1 .441s1-.816 1-1.059-.45-.441-1-.441-1 .477-1 1.059m-140.333 3.608c-1.214 1.214-.691 4.333.726 4.333 1.31 0 2.607-2.03 2.607-4.082 0-1.06-2.347-1.237-3.333-.251m105.633 1.737c-.44.772-1.925 1.611-3.3 1.864-2.183.401-2.103.477.633.596 2.359.102 3.263-.359 3.657-1.864.609-2.329.153-2.603-.99-.596m-113.178 1.5c-1.846 1.168-.728 2.747 2.363 3.338 1.914.366 2.515.061 2.515-1.274 0-.965-.712-2.027-1.582-2.361-1.915-.735-1.627-.761-3.296.297M282.5 632c-.34.55-.141 1 .441 1s1.059-.45 1.059-1-.198-1-.441-1-.719.45-1.059 1m-45.5 1.299c1.375.639 3.048 1.846 3.718 2.682 1.032 1.286 1.223 1.097 1.25-1.231.029-2.529-.27-2.745-3.718-2.682-3.631.065-3.671.104-1.25 1.231m-110.574 6.684c-2.159 2.191-4.838 3.991-5.954 4-1.115.009-2.798.917-3.74 2.017-.942 1.1-2.842 2-4.222 2-1.381 0-2.51.461-2.51 1.025 0 .563-1.237 1.527-2.75 2.14l-2.75 1.116 2.5.688c1.876.517 2.725.232 3.403-1.14.496-1.006 1.697-1.829 2.668-1.829 2.837 0 4.929-1.106 4.929-2.607 0-.881 1.102-1.393 3-1.393 1.65 0 3 .45 3 1s.45 1 1 1 1-.626 1-1.392c0-.765 1.125-1.674 2.5-2.019 1.919-.481 2.5-1.275 2.5-3.415 0-2.111.667-3.052 2.75-3.875l2.75-1.086-3.074-.107c-2.339-.081-4.014.847-7 3.877m149.606-2.639c-.018 1.014-.932 2.079-2.032 2.366-1.1.288-2 .889-2 1.337 0 .72 5.722-.436 6.625-1.339.195-.195-.302-1.221-1.104-2.281-1.387-1.834-1.459-1.838-1.489-.083M244 640.57c0 1.042.729 1.462 2.172 1.25 3.201-.472 3.544-2.82.411-2.82-1.68 0-2.583.549-2.583 1.57m-7 12.93c0 1.375.45 2.5 1 2.5s1-1.125 1-2.5-.45-2.5-1-2.5-1 1.125-1 2.5m26.149.82c-.909 1.096-.859 1.676.222 2.573 1.073.891 1.517.842 1.92-.208.866-2.257-.75-4.042-2.142-2.365M97.71 657c-.4 1.532-1.364 2-4.116 2-2.554 0-3.594.441-3.594 1.525 0 .838-1.125 1.952-2.5 2.475-1.375.523-2.5 1.412-2.5 1.975 0 .564-.568 1.025-1.263 1.025-.694 0-1.707 1.013-2.25 2.25-.675 1.54-2.008 2.349-4.221 2.562l-3.234.312 2.037 2.756 2.038 2.756 3.518-3.318c1.934-1.825 3.904-3.318 4.377-3.318.472 0 1.003-.967 1.178-2.148.176-1.181.995-2.482 1.82-2.891.825-.409 4.288-2.029 7.696-3.602 4.066-1.876 6.215-3.461 6.25-4.609.079-2.573-4.555-2.351-5.236.25m22.39-.75c-.055.962-.789 1.75-1.631 1.75-2.054 0-2.883 2.455-1.583 4.689 1 1.72 1.055 1.721 1.084.029.016-.98.845-2.105 1.841-2.5 1.381-.547 1.643-1.313 1.1-3.218-.453-1.592-.748-1.865-.811-.75m17.169 3.443c.973.254 2.323.237 3-.037.677-.274-.119-.481-1.769-.461-1.65.02-2.204.244-1.231.498M597 663.094c0 .498.9.906 2 .906s2-.173 2-.383c0-.211-.9-.619-2-.907-1.1-.287-2-.115-2 .384m-446.187.589c.721.289 1.584.253 1.916-.079.332-.332-.258-.568-1.312-.525-1.165.048-1.402.285-.604.604m376.266 4.9c.048 1.165.285 1.402.604.605.289-.722.253-1.585-.079-1.917-.332-.332-.568.258-.525 1.312M250.734 670.6c-.33.33-.102 1.692.506 3.028.807 1.771 1.327 2.082 1.918 1.15 1.908-3.006-.113-6.489-2.424-4.178m-160.921 4.083c.721.289 1.584.253 1.916-.079.332-.332-.258-.568-1.312-.525-1.165.048-1.402.285-.604.604M248 681c0 1.824.415 2.862 1 2.5.55-.34 1-1.465 1-2.5s-.45-2.16-1-2.5c-.585-.362-1 .676-1 2.5m202.75 5.662c.688.278 1.813.278 2.5 0 .688-.277.125-.504-1.25-.504s-1.937.227-1.25.504M829.158 690c0 1.375.227 1.938.504 1.25.278-.687.278-1.812 0-2.5-.277-.687-.504-.125-.504 1.25M101 691.059c0 .582.45.781 1 .441s1-.816 1-1.059-.45-.441-1-.441-1 .477-1 1.059m383.75 3.603c.688.278 1.813.278 2.5 0 .688-.277.125-.504-1.25-.504s-1.937.227-1.25.504M63 702c-.879.568-1.012.976-.321.985.648.008 1.885.722 2.75 1.586.864.865 1.571 1.127 1.571.582 0-.544.273-1.701.607-2.571.697-1.815-2.144-2.174-4.607-.582m-10.731.693c.973.254 2.323.237 3-.037.677-.274-.119-.481-1.769-.461-1.65.02-2.204.244-1.231.498m819.81 11.89c.048 1.165.285 1.402.604.605.289-.722.253-1.585-.079-1.917-.332-.332-.568.258-.525 1.312m-817.382 4.81c-.409 1.041-.508 2.129-.221 2.417.913.912 1.715-.583 1.333-2.482-.35-1.74-.404-1.737-1.112.065m414.382 2.19c.048 1.165.285 1.402.604.605.289-.722.253-1.585-.079-1.917-.332-.332-.568.258-.525 1.312m38.431.433c.346.559 1.047.758 1.559.441 1.387-.857 1.129-1.457-.628-1.457-.857 0-1.276.457-.931 1.016m236.685 1.484c.02 1.65.244 2.204.498 1.231.254-.973.237-2.323-.037-3-.274-.677-.481.119-.461 1.769m96.884-.917c.048 1.165.285 1.402.604.605.289-.722.253-1.585-.079-1.917-.332-.332-.568.258-.525 1.312M177.885 741.25c-.651 1.237-1.68 2.581-2.285 2.985-.626.418-.092.741 1.24.75 2.808.018 6.598-4.085 4.819-5.217-1.847-1.175-2.512-.914-3.774 1.482M190 741c0 .55.477 1 1.059 1s.781-.45.441-1-.816-1-1.059-1-.441.45-.441 1m337.032 2.25c-.034 2.926.318 3.103 3.468 1.75 1.129-.485 1.394-.89.61-.93-.764-.038-1.987-.858-2.718-1.82-1.208-1.591-1.331-1.5-1.36 1m337.2 6.75c0 1.925.206 2.712.457 1.75.252-.962.252-2.538 0-3.5-.251-.962-.457-.175-.457 1.75M193.5 751c-1.1.473-3.8.936-6 1.029-3.359.143-3.6.282-1.505.865 1.372.381 2.649 1.498 2.839 2.481.481 2.499-5.185 7.276-9.654 8.14-3.358.648-3.483.785-1.43 1.566 1.238.47 2.25 1.36 2.25 1.978 0 1.67-9.165 10.608-11.65 11.361-1.659.503-2.129 1.399-2.057 3.927.096 3.383-4.632 10.653-6.928 10.653-1.394 0-4.365 4.377-4.365 6.43 0 .825-.87 1.965-1.934 2.534-1.063.57-2.075 2.262-2.25 3.762a5.05 5.05 0 01-2.784 3.952c-2.532 1.256-7.192 7.016-9.01 11.136-.562 1.273-2.372 3.451-4.022 4.839-1.65 1.389-3 3.399-3 4.467 0 1.069-.787 2.237-1.75 2.596s-2.338 1.469-3.057 2.468c-.775 1.077-2.557 1.816-4.379 1.816h-3.072l.676 5.978c.433 3.832.267 6.742-.464 8.107-1.557 2.91-.014 4.268 3.383 2.977 1.759-.669 2.663-1.752 2.663-3.191 0-1.289 1.566-3.52 3.836-5.463 3.191-2.731 3.763-3.783 3.4-6.257-.339-2.303.059-3.239 1.766-4.152 1.211-.648 3.027-.963 4.036-.699 2.082.544 2.962-1.069 2.962-5.431 0-3.284 5.527-9.869 8.284-9.869.87 0 1.867-.9 2.216-2 .349-1.1 1.087-2 1.639-2s.867-1.048.699-2.328c-.216-1.646 1.228-4.048 4.929-8.199 2.878-3.23 5.233-6.415 5.233-7.078 0-.663 2.7-3.991 6-7.395 3.3-3.404 6-6.781 6-7.505 0-2.449 5.07-9.078 8.294-10.844 1.798-.984 4.138-3.599 5.327-5.953 1.288-2.549 2.929-4.32 4.178-4.508 1.746-.263 1.972-.826 1.5-3.732-.42-2.59-.159-3.575 1.073-4.047.895-.344 1.628-1.252 1.628-2.018 0-1.541-2.424-1.715-5.5-.393m-24.25.662c-2.517 1.016-1.3 3.338 1.75 3.338 2.333 0 3-.444 3-2 0-1.955-1.896-2.489-4.75-1.338m810.945 4.838c.02 1.65.244 2.204.498 1.231.254-.973.237-2.323-.037-3-.274-.677-.481.119-.461 1.769m-813.664 5.793c-.428.986-.497 2.074-.155 2.417 1.016 1.015 1.835-.411 1.367-2.382-.414-1.747-.468-1.748-1.212-.035m971.936 6.981c-.313 1.25-.125 3.387.418 4.75.866 2.17.996 1.889 1.052-2.274.068-5.105-.549-6.144-1.47-2.476m-806.256 1.264c-1.066 1.208-1.022 1.462.25 1.462.846 0 1.539-.675 1.539-1.5 0-1.824-.15-1.82-1.789.038m-173.132 2.045c.048 1.165.285 1.402.604.605.289-.722.253-1.585-.079-1.917-.332-.332-.568.258-.525 1.312M189.5 772c.34.55.816 1 1.059 1s.441-.45.441-1-.477-1-1.059-1-.781.45-.441 1m964.236-.402c-.329.329-.352 1.24-.05 2.025.418 1.09.872 1.158 1.92.289.754-.626 1.125-1.538.824-2.025-.633-1.024-1.831-1.152-2.694-.289m-1011.351 8.097c-3.47 3.789-4.146 5.717-2.385 6.805.55.34 1 .172 1-.374 0-.545.851-1.261 1.892-1.592 1.041-.33 2.124-1.485 2.406-2.567.352-1.346 1.412-1.992 3.358-2.046 1.564-.043 2.282-.306 1.594-.583-.687-.278-1.25-1.142-1.25-1.921 0-2.571-3.175-1.477-6.615 2.278m833.615.364c0 1.132.45 1.781 1 1.441.55-.34 1-1.266 1-2.059 0-.793-.45-1.441-1-1.441s-1 .927-1 2.059m-822.238-.352c1.244.239 3.044.23 4-.02s-.062-.446-2.262-.435c-2.2.011-2.982.216-1.738.455m830.317.876c.048 1.165.285 1.402.604.605.289-.722.253-1.585-.079-1.917-.332-.332-.568.258-.525 1.312m-8.347 5.332c-.361 1.383-.071 2.085.862 2.085 1.595 0 1.761-.891.529-2.835-.643-1.014-.976-.834-1.391.75m-858.919 1.768c.721.289 1.584.253 1.916-.079.332-.332-.258-.568-1.312-.525-1.165.048-1.402.285-.604.604m16.456.01c.973.254 2.323.237 3-.037.677-.274-.119-.481-1.769-.461-1.65.02-2.204.244-1.231.498M988 791c0 .55 1.125 1 2.5 1s2.5-.45 2.5-1-1.125-1-2.5-1-2.5.45-2.5 1m-862.481 1.979c-1.632 1.804-1.646 2.035-.155 2.607 2.62 1.006 4.543-.226 3.942-2.525-.674-2.576-1.513-2.595-3.787-.082m10.56 2.604c.048 1.165.285 1.402.604.605.289-.722.253-1.585-.079-1.917-.332-.332-.568.258-.525 1.312m-22.329 4.079c.688.278 1.813.278 2.5 0 .688-.277.125-.504-1.25-.504s-1.937.227-1.25.504m-9.079 3c-.636.637 6.583 4.338 8.461 4.338.503 0 .177-1.125-.724-2.5-1.572-2.399-6.1-3.475-7.737-1.838m490.115 2.385c-1.742 1.912-1.628 2.167 1.464 3.267 1.414.503 1.75.052 1.75-2.345 0-3.385-.768-3.606-3.214-.922m9.31 2.773c-.641 1.199-1.773 2.18-2.515 2.18-2.542 0-2.501 8.86.045 9.709.589.196 2.053-.446 3.253-1.426 2.779-2.271 3.772-8.102 1.824-10.713-1.411-1.892-1.463-1.887-2.607.25m6.443 10.425c-1.548 3.682-.769 4.714 3.58 4.74 3.887.022 13.881 8.345 13.881 11.558 0 .209-1.913.905-4.25 1.547l-4.25 1.168 4.419 1.902c5.21 2.242 4.618 3.426-2.364 4.731-2.675.5-5.266 1.629-5.759 2.509-.492.88-1.562 1.6-2.377 1.6-.815 0-1.741.675-2.057 1.5-.676 1.762-3.486 1.976-5.075.387-1.471-1.471-3.287-.264-3.287 2.184 0 1.718-.481 1.876-4.001 1.313l-4-.64.625 3.128c.576 2.876.412 3.128-2.03 3.128-1.595 0-2.938-.699-3.362-1.75-.525-1.304-.835-.859-1.218 1.75-.427 2.907-1.085 3.685-3.884 4.589-1.854.6-3.789 1.837-4.3 2.75-.511.914-1.521 1.661-2.245 1.661-.723 0-2.459.9-3.858 2-1.788 1.406-4.129 2.019-7.885 2.063-4.216.05-4.868.254-3.092.968 1.237.498 2.25 1.594 2.25 2.437 0 2.373 4.654 1.962 5.29-.468.375-1.435 1.364-2 3.5-2s3.124-.565 3.5-2c.313-1.197 1.364-2 2.616-2 1.152 0 2.094-.421 2.094-.935 0-.515 1.543-1.494 3.429-2.176 1.886-.682 3.644-2.061 3.907-3.064.307-1.175 1.401-1.825 3.07-1.825 1.427 0 2.594-.421 2.594-.935 0-.515 1.575-1.505 3.5-2.201 1.925-.696 3.5-1.619 3.5-2.05 0-.432 2.063-1.305 4.585-1.94s4.82-1.766 5.107-2.514c.302-.787 1.991-1.36 4.007-1.36 1.971 0 4.59-.869 6.028-2 2.294-1.805 4.057-2 18.043-2 14.749 0 15.608.109 17.724 2.25 3.587 3.629 6.786 5.75 8.674 5.75.969 0 2.243.9 2.832 2s1.73 2 2.535 2c.806 0 1.465.645 1.465 1.433s.858 1.705 1.908 2.038c1.049.333 2.16 1.263 2.468 2.067.309.804 1.697 1.462 3.084 1.462 1.44 0 3.059.859 3.772 2 1.518 2.431 3.051 2.516 6.352.353l2.514-1.647-3.549-2.926c-1.952-1.609-3.549-3.568-3.549-4.353 0-1.639-1.584-1.909-2.5-.427-1.147 1.856-2.466 1.018-3.936-2.5-.942-2.255-2.136-3.5-3.358-3.5-1.043 0-2.711-.9-3.706-2-.995-1.1-2.238-2-2.761-2-.916 0-5.548-3.415-8.823-6.505-.871-.822-2.953-1.495-4.627-1.495s-3.604-.675-4.289-1.5c-.685-.825-2.427-1.506-3.872-1.514-4.336-.022-7.028-1.094-7.647-3.044-.321-1.014-2.376-2.633-4.566-3.599-2.542-1.122-4.194-2.607-4.571-4.11-.389-1.548-1.095-2.159-2.066-1.786-.811.311-2.815-.562-4.453-1.941-1.638-1.378-3.809-2.506-4.825-2.506s-3.184-1.125-4.818-2.5c-1.634-1.375-3.265-2.5-3.625-2.5-.359 0-1.268 1.46-2.018 3.245M597.195 839.5c.02 1.65.244 2.204.498 1.231.254-.973.237-2.323-.037-3-.274-.677-.481.119-.461 1.769M690 870.974c0 1.187.66 2.026 1.594 2.026.876 0 1.829.9 2.116 2 .288 1.1 1.271 2 2.184 2 .914 0 2.646.69 3.85 1.533 2.002 1.402 2.355 1.368 4.121-.398 1.909-1.909 1.88-1.947-2.492-3.171-2.434-.681-4.666-1.63-4.962-2.108-.296-.479-1.859-1.554-3.474-2.389-2.783-1.438-2.937-1.412-2.937.507M562 880c0 .55.45 1 1 1s1-.45 1-1-.45-1-1-1-1 .45-1 1m-15.907 8.255c-.517 1.359-1.874 2.716-3.016 3.015-1.268.331-2.077 1.358-2.077 2.636 0 2.653 1.604 2.703 3 .094.589-1.1 1.902-2 2.919-2 2.308 0 3.349-3.532 1.494-5.072-1.092-.907-1.576-.63-2.32 1.327M530 903c-1.282.828-1.246.972.25.985.962.008 1.75-.435 1.75-.985 0-1.22-.113-1.22-2 0m-10.364 4.506c-1.576.822-4.354 1.494-6.174 1.494-2.106 0-4.434.947-6.405 2.606-2.525 2.124-3.371 2.378-4.577 1.377-.814-.675-1.539-2.41-1.612-3.855-.107-2.141-.246-1.979-.75.872l-.618 3.5-8.5 1.136c-6.114.817-7.865 1.342-6.239 1.869 1.336.434 2.486 1.81 2.81 3.364.303 1.447.973 3.412 1.489 4.367 1.274 2.355 1.191 2.764-.56 2.764-.825 0-1.5-.45-1.5-1 0-1.103-2.974-1.331-5.371-.411-1.242.476-1.309.951-.351 2.484 1.019 1.633.7 2.309-2.297 4.871-1.915 1.636-4.943 3.268-6.731 3.627-2.766.555-3.25 1.082-3.25 3.54 0 3.926 2.791 3.824 7.144-.258 1.846-1.732 4.818-3.763 6.606-4.514 1.788-.751 3.25-1.754 3.25-2.227 0-.474 1.336-1.129 2.969-1.456 1.633-.326 3.883-1.508 5-2.625s2.649-2.031 3.405-2.031c.756 0 3.094-1.575 5.196-3.5 2.101-1.925 4.201-3.5 4.666-3.5.945 0 6.107-3.467 9.458-6.354 1.619-1.394 3.061-1.729 5.5-1.278 1.818.336 4.656.204 6.306-.292 1.65-.497 2.285-.943 1.411-.99-.875-.047-2.103-1.211-2.729-2.586-1.301-2.855-3.438-3.137-7.546-.994m13.703 4.976c.815.815 1.644 1.966 1.841 2.557.655 1.966 3.628-.056 3.093-2.104-.357-1.363-1.38-1.935-3.461-1.935-2.611 0-2.782.173-1.473 1.482m17.423-.775c1.244.239 3.044.23 4-.02s-.062-.446-2.262-.435c-2.2.011-2.982.216-1.738.455m32.988 3.999c1.237.238 3.263.238 4.5 0 1.237-.239.225-.434-2.25-.434s-3.487.195-2.25.434m-105.25 2.461c-1.65.495-5.363.628-8.25.295-4.22-.487-5.25-.318-5.25.859 0 1.916-2.158 2.679-7.582 2.679-3.83 0-4.418.281-4.418 2.113 0 1.812-.46 2.046-3.219 1.642-1.77-.26-4.632-.083-6.36.394-2.606.72-3.063 1.271-2.687 3.242.607 3.172-1.27 4.143-4.243 2.195-3.443-2.256-8.172-2.05-9.491.414-.866 1.617-2.094 2-6.419 2-4.507 0-5.43.315-5.871 2-.287 1.1-1.272 2-2.188 2-.916 0-2.34.675-3.165 1.5-.825.825-2.48 1.544-3.678 1.599a81.013 81.013 0 00-4.179.315c-1.1.119-3.012.3-4.25.401-1.238.102-2.25.82-2.25 1.597 0 .874-1.562 1.676-4.096 2.104-2.253.381-3.715 1.052-3.25 1.491.748.707 4.124.294 13.596-1.665 1.512-.313 2.75-.968 2.75-1.455 0-.488 1.647-.887 3.661-.887 2.812 0 4.286-.701 6.361-3.025 2.232-2.5 3.59-3.078 7.825-3.332 3.227-.193 5.877-.989 7.162-2.151 1.562-1.414 2.313-1.57 3.215-.668 1.434 1.434 8.418 1.565 9.278.173.406-.657 1.357-.608 2.761.144 1.606.859 2.237.86 2.523.002.209-.628 1.041-1.143 1.848-1.143.808 0 2.112-1.542 2.899-3.426 1.329-3.179 1.844-3.477 7.153-4.14 3.965-.496 5.837-.365 6.1.425.21.628 1.131 1.127 2.047 1.109 1.516-.029 1.508-.152-.083-1.36-.962-.731-1.75-1.841-1.75-2.468 0-2.185 2.956-1.119 5.158 1.86 1.22 1.65 2.724 3 3.342 3 .618 0 2.122-1.35 3.342-3 1.22-1.65 2.831-3 3.581-3 1.602 0 2.995-3.02 1.86-4.034-.431-.385-2.133-.294-3.783.201m91.5.274c0 .857.45 1.559 1 1.559s1-.423 1-.941-.45-1.219-1-1.559c-.55-.34-1 .084-1 .941m34.399.963c-1.036 2.698.162 4.285 1.436 1.904.772-1.441.826-2.399.161-2.811-.556-.343-1.274.065-1.597.907M627.5 927c.34.55 1.068 1 1.618 1s.722-.45.382-1c-.34-.55-1.068-1-1.618-1s-.722.45-.382 1m7.21 2c.288 1.1.696 2 .907 2 .21 0 .383-.9.383-2s-.408-2-.906-2c-.499 0-.671.9-.384 2m-177.248 2.062c-.361.584-1.85 1.582-3.309 2.219-2.586 1.128-2.542 1.166 1.701 1.501 4.91.387 4.657.502 5.589-2.532.558-1.816.304-2.25-1.317-2.25-1.104 0-2.303.478-2.664 1.062m6.517 2.951c-.87.538-.573.981.99 1.477 1.228.39 2.667.274 3.198-.257 1.23-1.23-2.442-2.299-4.188-1.22m-325.166.67c.721.289 1.584.253 1.916-.079.332-.332-.258-.568-1.312-.525-1.165.048-1.402.285-.604.604m-10 4c.721.289 1.584.253 1.916-.079.332-.332-.258-.568-1.312-.525-1.165.048-1.402.285-.604.604M426 942c0 .55.873 1 1.941 1s2.219-.45 2.559-1c.351-.567-.49-1-1.941-1-1.407 0-2.559.45-2.559 1m237.5-.008l-3 .618 3.227.518c1.774.286 3.725.211 4.334-.165 1.741-1.077-1.108-1.683-4.561-.971m-223.25 3.285c-1.369.626-2.205 1.85-2.134 3.126.093 1.689.205 1.756.573.347.277-1.06 1.414-1.75 2.884-1.75 1.335 0 2.427-.423 2.427-.941 0-1.575-1.384-1.864-3.75-.782m-63.891 6.229c-.317.828-2.441 1.805-4.718 2.172-3.673.592-3.858.744-1.641 1.34 1.375.369 5.313.206 8.75-.363 4.983-.826 6.25-1.403 6.25-2.845 0-1.447-.808-1.81-4.031-1.81-2.668 0-4.227.509-4.61 1.506M139 952.891c0 .61.815 1.109 1.811 1.109.997 0 2.778.9 3.959 2 1.299 1.211 3.529 2 5.649 2 2.258 0 4.191.738 5.438 2.076 1.341 1.44 2.81 1.951 4.789 1.666l2.854-.412-3.25-.79c-1.787-.434-3.25-1.354-3.25-2.043 0-2.719-4.03-4.407-14.75-6.179-2.036-.336-3.25-.123-3.25.573m252 1.559c0 .798-.788 1.909-1.75 2.47-1.62.943-1.623 1.021-.045 1.05.937.016 2.829-1.095 4.204-2.47l2.5-2.5h-2.454c-1.478 0-2.455.577-2.455 1.45m-33.664 4.3c-.582 2.135-8.368 6.25-11.825 6.25-1.381 0-2.511.512-2.511 1.138 0 .793 1.698.938 5.609.478 4.519-.531 6.117-1.238 8.223-3.638 1.901-2.167 3.506-2.978 5.891-2.978 2.246 0 3.277-.472 3.277-1.5 0-2.313-8.029-2.082-8.664.25M693 957.918c0 2.608 1.43 4.071 3.857 3.946 2.356-.122 2.398-.183.393-.57-1.407-.271-2.25-1.157-2.25-2.364 0-1.061-.45-1.93-1-1.93s-1 .413-1 .918M165 965c0 .55 1.575 1 3.5 1s3.5-.45 3.5-1-1.575-1-3.5-1-3.5.45-3.5 1m219 0c0 .55.477 1 1.059 1s.781-.45.441-1-.816-1-1.059-1-.441.45-.441 1m-46.731 4.693c.973.254 2.323.237 3-.037.677-.274-.119-.481-1.769-.461-1.65.02-2.204.244-1.231.498M326 974.339c0 .737-1.125 1.853-2.5 2.479-1.375.627-2.5 1.549-2.5 2.049 0 .501-1.634 1.217-3.63 1.591-2.551.479-3.316.996-2.573 1.739 1.337 1.337 5.547.316 7.741-1.878.923-.923 3.066-2.385 4.761-3.249 4.019-2.047 4.657-4.07 1.284-4.07-1.492 0-2.583.566-2.583 1.339M308 986c1.957 1.264 4 1.264 4 0 0-.55-1.238-.993-2.75-.985-2.143.012-2.419.23-1.25.985m5 2c-1.282.828-1.246.972.25.985.962.008 1.75-.435 1.75-.985 0-1.22-.113-1.22-2 0m-11.5 1c-.34.55.084 1 .941 1s1.559-.45 1.559-1-.423-1-.941-1-1.219.45-1.559 1m-4 2.831c-1.1.221-3.194 1.25-4.654 2.286s-3.373 1.883-4.25 1.883c-.878 0-1.596.441-1.596.981 0 1.655 9.161-.142 11.22-2.201 2.295-2.295 2.001-3.497-.72-2.949m446.5 4.13c0 1.121.423 2.039.941 2.039 1.656 0 1.893-1.459.454-2.789-1.159-1.072-1.395-.945-1.395.75M280 1001c0 .55.413 1 .918 1 .505 0 1.63.273 2.5.607 1.038.398 1.582.055 1.582-1 0-1.047-.87-1.607-2.5-1.607-1.375 0-2.5.45-2.5 1m6 3c0 .55.675 1 1.5 1s1.5-.45 1.5-1-.675-1-1.5-1-1.5.45-1.5 1m-11.2 1.2c.933.933 1.467.933 2.4 0 .933-.933.667-1.2-1.2-1.2s-2.133.267-1.2 1.2m-3.8 2.8c-1.282.828-1.246.972.25.985.962.008 1.75-.435 1.75-.985 0-1.22-.113-1.22-2 0m8 0c0 .55.45 1 1 1s1-.45 1-1-.45-1-1-1-1 .45-1 1m-14.75 3.813c-2.013.194-3.25.86-3.25 1.75 0 .791-.873 1.437-1.941 1.437-2.832 0-3.512 1.842-1.502 4.063 2.287 2.527 3.232 2.446 3.623-.313.202-1.42 1.123-2.364 2.497-2.56 2.317-.33 4.741-2.602 4.168-3.906-.19-.431-1.807-.643-3.595-.471m5.765 3.937c.037 1.778 1.747 3.444 2.419 2.357.376-.609.406-1.557.066-2.107-.721-1.166-2.507-1.346-2.485-.25m500.678 2.609c-.333.867-.145 1.861.417 2.209 1.557.962 2.189-.212 1.131-2.102-.842-1.505-1.008-1.516-1.548-.107m-520.554 2.66c-1.298 1.089-2.933 1.981-3.633 1.981-.7 0-1.5.868-1.777 1.928-.34 1.3-1.6 2.063-3.867 2.34-2.271.278-1.546.464 2.233.572 4.456.127 5.963-.247 7.405-1.84.995-1.1 2.851-2 4.123-2 1.978 0 2.192-.326 1.482-2.25-1.086-2.94-3.048-3.181-5.966-.731m-14.889 9.269c-1.238.56-2.25 1.594-2.25 2.297 0 .704-.9 1.566-2 1.915s-2 1.235-2 1.97c0 .734-1.238 1.838-2.75 2.454-3.816 1.555-8.095 4.185-10.903 6.703l-2.373 2.126 2.523 1.653c2.035 1.333 2.957 1.428 4.763.488 3.226-1.678 5.323-4.095 6.043-6.964.424-1.69 1.777-2.919 4.163-3.781 1.943-.703 3.534-1.699 3.534-2.214 0-.514.928-1.863 2.061-2.996 2.76-2.76 2.254-5.037-.811-3.651m28.563 13.395c.721.289 1.584.253 1.916-.079.332-.332-.258-.568-1.312-.525-1.165.048-1.402.285-.604.604m-35.061 3.469c.84.84 2.319.872 5.45.12l4.298-1.032-5.45-.12c-4.113-.091-5.167.163-4.298 1.032m78.998 30.51c.688.278 1.813.278 2.5 0 .688-.277.125-.504-1.25-.504s-1.937.227-1.25.504m26.25.397c0 .582.45.781 1 .441s1-.816 1-1.059-.45-.441-1-.441-1 .477-1 1.059m15.75 19.603c.688.278 1.813.278 2.5 0 .688-.277.125-.504-1.25-.504s-1.937.227-1.25.504m22.25 15.397c0 .582.45.781 1 .441s1-.816 1-1.059-.45-.441-1-.441-1 .477-1 1.059m26.813 3.624c.721.289 1.584.253 1.916-.079.332-.332-.258-.568-1.312-.525-1.165.048-1.402.285-.604.604M407 1139c0 .55 1.125 1 2.5 1s2.5-.45 2.5-1-1.125-1-2.5-1-2.5.45-2.5 1m480 16c0 .55.927 1 2.059 1 1.132 0 1.781-.45 1.441-1-.34-.55-1.266-1-2.059-1-.793 0-1.441.45-1.441 1m12.079 10.583c.048 1.165.285 1.402.604.605.289-.722.253-1.585-.079-1.917-.332-.332-.568.258-.525 1.312" fill="undefined" fill-rule="evenodd"/></svg>